<svg xmlns="http://www.w3.org/2000/svg" viewBox="0 0 640 200">
  <defs>
    <linearGradient id="beam" x1="0" y1="0" x2="1" y2="0">
      <stop offset="0%" stop-color="#2563eb"/>
      <stop offset="100%" stop-color="#0891b2"/>
    </linearGradient>
    <linearGradient id="curveFill" x1="0" y1="0" x2="0" y2="1">
      <stop offset="0%" stop-color="#2563eb" stop-opacity="0.18"/>
      <stop offset="100%" stop-color="#2563eb" stop-opacity="0"/>
    </linearGradient>
  </defs>

  <!-- icon: DVH-style descending curve on axes -->
  <g transform="translate(20,20)">
    <rect x="0" y="0" width="160" height="160" rx="14" fill="#0f172a"/>

    <!-- axes -->
    <line x1="28" y1="20" x2="28" y2="132" stroke="#64748b" stroke-width="2"/>
    <line x1="28" y1="132" x2="140" y2="132" stroke="#64748b" stroke-width="2"/>

    <!-- DVH curve -->
    <path d="M 28 34 C 60 34, 66 50, 78 70 C 92 94, 100 118, 140 124"
          fill="none" stroke="url(#beam)" stroke-width="5" stroke-linecap="round"/>
    <path d="M 28 34 C 60 34, 66 50, 78 70 C 92 94, 100 118, 140 124 L 140 132 L 28 132 Z"
          fill="url(#curveFill)" stroke="none"/>

    <!-- beam accent -->
    <circle cx="118" cy="46" r="5" fill="#0891b2"/>
    <line x1="90" y1="46" x2="112" y2="46" stroke="#0891b2" stroke-width="3" stroke-linecap="round" stroke-dasharray="2 5"/>
  </g>

  <!-- wordmark -->
  <g transform="translate(200,0)">
    <text x="0" y="95" font-family="Helvetica, Arial, sans-serif" font-size="46" font-weight="700" fill="#0f172a">Py<tspan fill="#2563eb">Plan</tspan>Analysis</text>
    <text x="2" y="122" font-family="Helvetica, Arial, sans-serif" font-size="16" font-weight="400" fill="#64748b" letter-spacing="0.5">DVH · LVH · DLVH · NTCP for proton therapy</text>
  </g>
</svg>
